HIERARCHY
ROOT SpineBase
{
  OFFSET 0.000000 0.000000 0.000000
  CHANNELS 6 Xposition Yposition Zposition Zrotation Xrotation Yrotation
  JOINT SpineMid
  {
    OFFSET 0.000000 24.505658 0.000000
    CHANNELS 3 Zrotation Xrotation Yrotation
    JOINT SpineShoulder
    {
      OFFSET -0.266804 18.361503 -0.711785
      CHANNELS 3 Zrotation Xrotation Yrotation
      JOINT Neck
      {
        OFFSET -0.179674 6.078848 -0.462038
        CHANNELS 3 Zrotation Xrotation Yrotation
        JOINT Head
        {
          OFFSET 0.470205 9.156893 6.752904
          CHANNELS 3 Zrotation Xrotation Yrotation
          End Site
          {
            OFFSET 0 0 0
          }
        }
      }
      JOINT ShoulderLeft
      {
        OFFSET -1.683999 -2.617813 9.253122
        CHANNELS 3 Zrotation Xrotation Yrotation
        JOINT ElbowLeft
        {
          OFFSET -7.250705 -22.017178 -16.760213
          CHANNELS 3 Zrotation Xrotation Yrotation
          JOINT WristLeft
          {
            OFFSET -0.265169 -25.776074 8.877851
            CHANNELS 3 Zrotation Xrotation Yrotation
            JOINT HandLeft
            {
              OFFSET -0.111112 -3.815100 5.458580
              CHANNELS 3 Zrotation Xrotation Yrotation
              JOINT HandTipLeft
              {
                OFFSET -0.058422 -1.638468 0.607275
                CHANNELS 3 Zrotation Xrotation Yrotation
                End Site
                {
                  OFFSET 0 0 0
                }
              }
              JOINT ThumbLeft
              {
                OFFSET 0.124056 -0.836928 -0.851691
                CHANNELS 3 Zrotation Xrotation Yrotation
                End Site
                {
                  OFFSET 0 0 0
                }
              }
            }
          }
        }
      }
      JOINT ShoulderRight
      {
        OFFSET 3.452813 -1.790238 -6.488437
        CHANNELS 3 Zrotation Xrotation Yrotation
        JOINT ElbowRight
        {
          OFFSET -12.806218 -20.173118 -3.214761
          CHANNELS 3 Zrotation Xrotation Yrotation
          JOINT WristRight
          {
            OFFSET -4.416381 -18.796435 5.563905
            CHANNELS 3 Zrotation Xrotation Yrotation
            JOINT HandRight
            {
              OFFSET 4.168565 0.163233 -2.626282
              CHANNELS 3 Zrotation Xrotation Yrotation
              JOINT HandTipRight
              {
                OFFSET 0.290229 -3.582830 -2.294048
                CHANNELS 3 Zrotation Xrotation Yrotation
                End Site
                {
                  OFFSET 0 0 0
                }
              }
              JOINT ThumbRight
              {
                OFFSET 1.020826 -2.421861 -6.064297
                CHANNELS 3 Zrotation Xrotation Yrotation
                End Site
                {
                  OFFSET 0 0 0
                }
              }
            }
          }
        }
      }
    }
  }
  JOINT HipLeft
  {
    OFFSET -3.251781 0.619560 -0.713253
    CHANNELS 3 Zrotation Xrotation Yrotation
    JOINT KneeLeft
    {
      OFFSET 11.495621 -43.342396 -11.031314
      CHANNELS 3 Zrotation Xrotation Yrotation
      JOINT AnkleLeft
      {
        OFFSET 1.534002 -28.700823 -3.606600
        CHANNELS 3 Zrotation Xrotation Yrotation
        JOINT FootLeft
        {
          OFFSET -8.953260 -2.728835 -5.832920
          CHANNELS 3 Zrotation Xrotation Yrotation
          End Site
          {
            OFFSET 0 0 0
          }
        }
      }
    }
  }
  JOINT HipRight
  {
    OFFSET 1.434411 1.887283 -5.087682
    CHANNELS 3 Zrotation Xrotation Yrotation
    JOINT KneeRight
    {
      OFFSET 11.096684 -34.697677 -0.708028
      CHANNELS 3 Zrotation Xrotation Yrotation
      JOINT AnkleRight
      {
        OFFSET 2.501087 -33.261848 -4.833636
        CHANNELS 3 Zrotation Xrotation Yrotation
        JOINT FootRight
        {
          OFFSET -9.437194 -2.108518 -6.269040
          CHANNELS 3 Zrotation Xrotation Yrotation
          End Site
          {
            OFFSET 0 0 0
          }
        }
      }
    }
  }
}
MOTION
Frames: 14
Frame Time: 0.033333
72.241147 76.525885 297.127748 8.566183 14.215210 -7.797832 -0.741989 1.426992 7.092712 -0.579040 -0.081987 0.416041 -8.439440 -6.947648 -1.898391 0.000000 0.000000 0.000000 -7.090975 -28.734184 2.100396 128.388637 50.366609 -69.211316 -62.470632 -56.907249 19.764686 45.201394 -5.867978 -38.345760 0.000000 0.000000 0.000000 0.000000 0.000000 0.000000 -19.759278 -1.154557 -10.000738 -3.667213 18.077209 -4.021434 -147.013000 -35.355295 -82.982356 65.705224 1.092306 -46.541959 0.000000 0.000000 0.000000 0.000000 0.000000 0.000000 -11.978631 -17.553928 5.166648 12.869827 -5.691981 -2.019017 4.977029 15.983397 -63.955225 0.000000 0.000000 0.000000 -32.329895 -7.753788 4.236589 33.177429 -9.902039 -1.177874 -0.506131 7.375015 -60.586306 0.000000 0.000000 0.000000
71.876935 76.651662 297.852148 8.323661 15.693181 -8.672562 -0.887193 1.258730 7.878809 -0.721670 -0.162766 0.384126 -5.587067 -10.343599 -2.964615 0.000000 0.000000 0.000000 -4.243758 -30.852805 1.672318 121.840703 45.245295 -51.160667 -65.567671 -35.934443 17.284543 31.555406 -12.286948 -30.979770 0.000000 0.000000 0.000000 0.000000 0.000000 0.000000 -12.172401 -3.489809 -10.061518 -18.925920 24.615490 -6.332272 -157.440304 -41.691445 -94.588277 54.965377 8.721299 -45.083492 0.000000 0.000000 0.000000 0.000000 0.000000 0.000000 -9.867664 -20.563509 5.497690 10.572547 0.027171 -1.412265 5.582538 12.499137 -62.545266 0.000000 0.000000 0.000000 -31.282477 -8.973242 4.670309 32.258727 -9.673852 -1.202880 0.911644 4.722312 -61.404316 0.000000 0.000000 0.000000
71.464306 76.731601 298.576664 8.006153 16.713238 -8.613784 -1.032269 0.728335 7.774845 -0.785435 -0.200123 0.353236 -3.483328 -12.199769 -3.473488 0.000000 0.000000 0.000000 -2.525084 -29.877580 0.872962 112.994453 41.492097 -32.502265 -62.944085 -18.532936 20.320045 21.401261 -22.175218 -24.955555 0.000000 0.000000 0.000000 0.000000 0.000000 0.000000 -3.223773 -3.757990 -10.470697 -38.688321 29.742246 -8.487225 -176.755110 -43.848699 -112.809680 67.227229 28.920622 -43.198149 0.000000 0.000000 0.000000 0.000000 0.000000 0.000000 -7.319646 -23.453885 5.012396 6.733894 7.316995 -0.160078 6.574463 8.091376 -59.658867 0.000000 0.000000 0.000000 -30.218456 -9.641748 4.433893 31.557470 -9.105217 -1.245289 0.200052 4.441104 -58.774287 0.000000 0.000000 0.000000
71.140263 76.670285 299.283594 7.423072 17.248455 -7.797166 -1.109036 0.920955 6.974659 -0.446283 -0.305276 0.418167 -2.109603 -14.711007 -3.791217 0.000000 0.000000 0.000000 -3.727760 -26.609133 -0.052710 102.927878 37.119243 -13.698119 -54.998207 -12.911929 32.697759 7.604424 -21.398149 -35.521725 0.000000 0.000000 0.000000 0.000000 0.000000 0.000000 6.245130 -2.989431 -11.778661 -55.840790 29.269377 -11.266343 159.893124 -43.093316 -129.941916 87.262156 36.662234 -56.344745 0.000000 0.000000 0.000000 0.000000 0.000000 0.000000 -4.451588 -26.040612 3.974768 1.746094 14.712270 1.870866 7.556728 3.808570 -55.544039 0.000000 0.000000 0.000000 -29.182748 -9.741013 3.737054 31.068776 -8.203893 -1.284076 -0.894054 4.097499 -54.864001 0.000000 0.000000 0.000000
70.818958 76.379167 299.954433 7.308450 17.059921 -6.784842 -0.864202 1.090582 6.027215 -0.434875 -0.270334 0.425069 -4.112522 -14.894683 -3.040254 0.000000 0.000000 0.000000 -3.572441 -24.196848 -1.069374 93.458808 31.360442 0.521154 -48.831603 -16.146743 39.941158 11.211506 -14.983429 -40.076212 0.000000 0.000000 0.000000 0.000000 0.000000 0.000000 12.054518 -1.156424 -13.689679 -69.847309 25.744289 -16.197340 108.576136 -32.043721 -162.066628 97.238909 22.598874 -86.666268 0.000000 0.000000 0.000000 0.000000 0.000000 0.000000 -4.556644 -26.747308 2.700461 2.124259 18.415023 2.031743 6.729538 1.177889 -55.020973 0.000000 0.000000 0.000000 -28.787857 -9.079674 3.067728 30.820811 -7.444633 -1.311881 -1.103699 3.318412 -54.618417 0.000000 0.000000 0.000000
70.503566 75.931312 300.584824 7.613622 16.335105 -6.637641 -0.449573 0.553526 5.975139 -0.625717 -0.202187 0.390922 -8.386764 -11.330180 -1.426574 0.000000 0.000000 0.000000 -3.727973 -20.653339 -2.072944 85.070415 24.451674 11.861169 -42.865566 -24.845526 43.602874 14.993986 -4.587573 -43.397848 0.000000 0.000000 0.000000 0.000000 0.000000 0.000000 16.022078 1.735814 -16.156503 -79.588697 20.549782 -21.847316 89.511788 -16.649612 -177.057552 95.255938 13.827435 -96.140819 0.000000 0.000000 0.000000 0.000000 0.000000 0.000000 -3.737650 -27.108427 2.403944 -0.119733 22.183403 3.147571 7.529902 -1.588151 -54.845374 0.000000 0.000000 0.000000 -28.771838 -8.292534 3.309580 30.580638 -6.670702 -1.335594 -1.138369 2.353603 -54.685447 0.000000 0.000000 0.000000
70.225185 75.495187 301.171108 8.272854 15.173956 -7.021433 -0.060232 -0.183386 6.454395 -0.940125 0.014361 0.336439 -13.781890 -6.249418 1.061079 0.000000 0.000000 0.000000 -6.001175 -18.232578 -1.626375 81.066265 16.791813 17.413797 -37.261445 -35.041062 45.651160 22.684815 0.865890 -44.348443 0.000000 0.000000 0.000000 0.000000 0.000000 0.000000 15.595243 5.793816 -19.080343 -81.889301 12.657512 -26.852893 84.207715 -9.024927 173.573151 95.915727 11.240311 -96.863085 0.000000 0.000000 0.000000 0.000000 0.000000 0.000000 -3.353026 -26.402071 2.746565 -2.095990 24.253688 4.041056 8.833780 -3.632828 -55.888002 0.000000 0.000000 0.000000 -29.094587 -7.373260 4.122531 30.406510 -5.876376 -1.359738 -0.863391 1.196534 -55.993629 0.000000 0.000000 0.000000
69.889937 75.059584 301.682161 9.123642 13.765860 -7.609419 0.379895 -0.848417 7.163570 -1.217898 0.236005 0.304745 -21.624327 1.000378 5.419477 0.000000 0.000000 0.000000 -7.026462 -16.482961 -1.555281 76.290372 12.351861 19.226602 -30.445194 -41.948032 48.281395 29.620433 -2.447319 -43.600658 0.000000 0.000000 0.000000 0.000000 0.000000 0.000000 13.320722 7.649653 -19.521871 -80.997292 2.441927 -28.837783 83.818084 -11.803215 164.403438 102.162494 13.141940 -91.829538 0.000000 0.000000 0.000000 0.000000 0.000000 0.000000 -3.430228 -24.511583 3.448635 -3.669289 24.130228 4.501822 10.380018 -4.612134 -57.500347 0.000000 0.000000 0.000000 -29.597070 -6.276454 5.234429 30.257713 -5.315987 -1.386038 -0.513256 0.093314 -57.792427 0.000000 0.000000 0.000000
69.549222 74.684812 302.078256 9.895630 12.206576 -7.992491 0.747285 -1.481511 7.695238 -1.492135 0.389811 0.278332 -25.040334 4.904102 7.741653 0.000000 0.000000 0.000000 -6.051956 -14.354048 -2.474446 69.894382 11.203829 19.971797 -20.624910 -43.196824 54.013075 33.219241 -13.263242 -41.144776 0.000000 0.000000 0.000000 0.000000 0.000000 0.000000 13.576077 8.505738 -19.493681 -84.184023 0.838523 -29.909231 79.948484 -4.394225 161.685759 93.809167 15.163787 -97.820257 0.000000 0.000000 0.000000 0.000000 0.000000 0.000000 -3.649824 -22.990417 3.833031 -4.653253 24.807396 4.878663 11.031581 -5.732890 -57.996636 0.000000 0.000000 0.000000 -30.185381 -4.953358 6.271629 30.250789 -4.989333 -1.405726 -0.477727 -0.749501 -58.449089 0.000000 0.000000 0.000000
69.196775 74.326097 302.407480 10.286157 10.733975 -8.183646 0.778927 -1.769293 7.992967 -1.824438 0.574493 0.228348 -24.245590 6.338865 7.752214 0.000000 0.000000 0.000000 -3.181666 -13.300307 -3.903880 63.643462 11.861389 20.435919 -10.947713 -39.504152 60.786703 32.876297 -27.665475 -35.224093 0.000000 0.000000 0.000000 0.000000 0.000000 0.000000 13.319263 7.258188 -17.374643 -86.278643 5.765451 -27.692174 80.331325 -1.250622 166.272706 91.575560 11.609894 -100.109693 0.000000 0.000000 0.000000 0.000000 0.000000 0.000000 -3.850820 -21.080461 4.168797 -4.640046 24.316390 4.705022 11.005372 -5.990561 -58.301922 0.000000 0.000000 0.000000 -30.437280 -3.516625 7.259522 30.193564 -4.959672 -1.421439 -0.508723 -1.339469 -58.781829 0.000000 0.000000 0.000000
68.867566 74.041375 302.662579 10.273490 9.573172 -8.322337 0.529330 -1.744479 8.176178 -2.046684 0.640039 0.186931 -19.910444 5.181716 5.523853 0.000000 0.000000 0.000000 0.790191 -13.311722 -5.564303 57.517473 15.468188 19.661761 -3.949714 -30.042886 66.608963 34.720156 -43.560579 -23.892669 0.000000 0.000000 0.000000 0.000000 0.000000 0.000000 13.804603 7.818157 -17.178443 -88.810761 5.127178 -28.838312 77.885618 6.192808 166.104957 87.102914 10.476728 -104.417009 0.000000 0.000000 0.000000 0.000000 0.000000 0.000000 -3.323638 -19.905924 4.406927 -5.728779 25.047782 5.139291 11.596235 -6.995833 -58.547483 0.000000 0.000000 0.000000 -30.252469 -2.431368 8.072708 30.123467 -4.775763 -1.445001 -0.555547 -1.900898 -59.177200 0.000000 0.000000 0.000000
68.588700 73.819725 302.842506 10.031288 8.776970 -8.230373 0.117502 -1.463658 8.074605 -1.993888 0.491190 0.182003 -13.401203 0.762572 1.801549 0.000000 0.000000 0.000000 4.614886 -13.640753 -7.209148 54.479599 18.576809 20.214979 -5.169306 -24.833763 65.816315 40.201180 -53.383561 -6.604383 0.000000 0.000000 0.000000 0.000000 0.000000 0.000000 15.097174 8.475868 -17.550109 -91.124014 4.066476 -30.267861 76.077256 11.653454 166.182679 83.795142 9.964276 -107.605112 0.000000 0.000000 0.000000 0.000000 0.000000 0.000000 -2.855231 -18.864708 4.434346 -6.019648 25.016302 5.178725 11.669728 -7.315734 -58.740065 0.000000 0.000000 0.000000 -29.854764 -1.556067 8.524803 30.021969 -4.685258 -1.465665 -0.604139 -2.264039 -59.414410 0.000000 0.000000 0.000000
68.348004 73.726685 302.933976 9.556884 8.584619 -7.800891 -0.422638 -0.904884 7.571251 -1.795875 0.174750 0.188654 -5.071118 -7.653130 -2.622625 0.000000 0.000000 0.000000 8.036401 -14.650272 -8.401429 51.806380 18.994322 21.970921 -1.749376 -20.843175 68.920756 27.563362 -56.745957 -6.993969 0.000000 0.000000 0.000000 0.000000 0.000000 0.000000 16.189125 8.994449 -18.088810 -92.527978 3.626126 -31.662322 74.587316 15.967375 166.369710 80.880571 10.684916 -110.393625 0.000000 0.000000 0.000000 0.000000 0.000000 0.000000 -2.160020 -18.552577 4.067556 -6.581049 25.292881 5.387245 11.989702 -7.738725 -59.183302 0.000000 0.000000 0.000000 -29.162768 -1.122231 8.367948 29.844733 -4.635407 -1.487887 -0.543774 -2.410145 -59.945880 0.000000 0.000000 0.000000
68.247527 73.673328 303.002558 8.786826 8.861131 -7.514051 -1.088798 0.184991 7.160231 -1.253515 -0.273150 0.237767 4.745152 -20.595823 -6.512879 0.000000 0.000000 0.000000 11.352483 -16.326642 -9.333230 50.544801 17.359994 25.278278 1.606153 -22.597773 71.519174 15.056141 -56.206228 -12.778287 0.000000 0.000000 0.000000 0.000000 0.000000 0.000000 17.626418 8.991911 -18.741870 -91.862074 1.874696 -32.406245 75.868313 12.318264 166.200277 83.650449 9.801199 -107.934911 0.000000 0.000000 0.000000 0.000000 0.000000 0.000000 -1.196109 -18.767467 3.868515 -7.066388 25.660205 5.602949 12.345113 -8.084463 -59.716153 0.000000 0.000000 0.000000 -28.402138 -1.019487 8.225640 29.980570 -5.007501 -1.476679 -0.575028 -2.225211 -60.562380 0.000000 0.000000 0.000000
